# 3ds Max Wavefront OBJ Exporter v0.97b - (c)2007 guruware
# File Created: 06.06.2017 19:53:15

mtllib Crystal.mtl

#
# object Crystal
#

v  -2.2501 2.5298 0.0891
v  -2.5529 0.7928 0.4610
v  -2.0768 2.3527 0.4469
v  -2.1022 1.6491 0.7150
v  -2.6152 -0.9103 -0.8604
v  -2.4686 0.0193 -0.9942
v  -1.4427 -1.4770 -0.8019
v  -2.6326 -0.3977 -0.2643
v  -1.1630 -3.0271 -0.4885
v  -0.2213 -3.5379 -0.3470
v  -1.3094 -2.7149 0.2025
v  -0.3295 -3.4274 -0.4932
v  -0.4428 2.6365 -1.4285
v  -0.6525 2.1028 -1.3450
v  -1.1294 1.7488 -1.2777
v  -0.2786 2.4343 1.3405
v  -0.4934 2.4185 1.2987
v  -0.4712 2.2561 1.4406
v  -0.9582 2.3135 1.1461
v  -0.6911 2.1810 1.3381
v  -0.7939 2.3608 1.1727
v  -0.6266 2.2723 1.3612
v  -1.3643 2.1779 1.0922
v  -0.3145 2.9946 0.5558
v  -0.6589 2.3860 1.2054
v  -0.9445 2.8575 0.3918
v  -1.4561 2.7393 0.2543
v  -1.8385 2.1279 0.8872
v  1.1652 3.0772 -1.0620
v  1.4212 3.2230 -0.1499
v  2.0304 2.5100 -1.2432
v  2.5285 2.1628 -1.3448
v  1.8854 2.5099 -1.4027
v  1.4873 2.7949 -1.3470
v  -1.5654 -2.7612 -0.4786
v  -2.6380 -1.4348 0.0054
v  -2.5322 -1.1451 -0.7699
v  0.6773 3.1265 0.2173
v  0.7380 2.9697 -1.3682
v  -0.4044 2.8600 -0.5665
v  -2.4681 1.1924 0.2073
v  -2.2670 2.3080 -0.1498
v  -0.7236 2.8998 0.4322
v  -0.0131 -3.5677 -0.4735
v  -0.0512 -2.4373 -0.6581
v  2.7134 -0.7462 -0.9157
v  2.4458 -0.9303 -0.8917
v  2.7168 -0.1288 -1.0073
v  -2.7790 -1.1989 0.0894
v  2.7130 0.2898 -1.0529
v  2.6422 0.3324 -0.9395
v  2.6689 -1.2264 -0.7438
v  2.5642 -0.2885 -0.7454
v  2.2683 -0.2463 -0.4233
v  2.4066 -1.6118 -0.3929
v  -0.5157 -2.0171 0.8583
v  0.2601 -0.6432 1.3620
v  -0.6762 -0.3559 1.0351
v  2.7213 -0.4220 -0.9246
v  2.5249 0.8592 -0.8920
v  0.0977 2.3233 1.5578
v  0.6661 3.1791 0.7869
v  -0.0924 2.3743 1.4988
v  -1.8417 2.5651 -0.3738
v  -1.0850 2.1444 -1.1511
v  -0.7682 2.7236 -1.1123
v  -0.6380 -0.2909 -0.9989
v  -0.5747 1.0572 1.2667
v  -0.8047 2.6566 -1.1464
v  -0.4073 2.7331 -1.3878
v  1.0882 -0.0775 0.8660
v  0.4087 2.9021 -1.3898
v  -0.0857 2.8133 -1.3662
v  -1.0860 0.7820 1.0315
v  2.5841 1.5926 -1.2660
v  2.3991 -0.0325 -1.0268
v  1.9043 1.4497 -1.2511
v  -2.1878 -1.4786 0.2865
v  0.7179 -3.3251 0.6502
v  0.2926 -3.3644 0.9542
v  0.7587 -3.4311 -0.3696
v  1.1384 -3.3402 -0.4910
v  1.3348 -3.3153 -0.4014
v  1.8449 1.8369 -0.2974
v  0.5210 1.2950 1.2615
v  0.8946 2.7488 -1.4554
v  1.4492 2.6382 -1.4231
v  2.4462 -3.0978 -0.4404
v  2.5256 -3.0306 -0.3849
v  1.7616 -3.1456 0.4174
v  1.0126 3.1949 0.3215
v  0.1535 3.0824 0.6800
v  2.5922 -2.8228 -0.4487
v  1.7468 -3.0928 0.5204
v  1.4812 3.1272 -0.1105
v  0.4018 1.5185 -1.2659
v  0.0109 -3.5024 0.1604
v  -0.0854 -3.4277 0.2466
v  -1.4503 -2.8179 -0.5764
v  0.5596 -3.4691 -0.3799
v  0.5795 -3.4695 -0.4864
v  1.1897 -3.1655 1.1113
v  1.1527 -3.0241 1.1926
v  0.9736 -3.1957 1.2063
v  1.3505 -1.3115 0.7538
v  0.9958 -3.0621 -0.5504
v  -0.0635 -3.5856 -0.3704
v  -1.8719 -2.0768 -0.6949
v  2.4654 -1.8426 -0.7444
v  1.4760 -3.2761 -0.5140
v  1.0100 -3.0381 1.2846
v  1.9880 -3.1883 -0.4405
v  1.6724 -3.2612 -0.4252
v  0.4087 0.7426 1.4804
v  0.7016 2.8732 -1.4715
v  -1.3483 1.3871 -1.2312
v  -2.0025 0.9640 -0.9541
v  -1.4184 1.4927 -1.1780
v  0.1952 2.7987 -1.4575
v  0.6970 -0.7618 -0.9238
v  -2.4725 -0.8776 0.2596
v  -2.2813 -0.3022 0.4094
v  0.1849 1.3283 1.5687
v  2.5021 2.2565 -1.1155
v  2.3544 2.3077 -0.9548
v  1.0804 3.1484 0.3315
v  1.1193 2.8199 -1.4580
v  -0.0186 2.2145 1.5973
v  -1.7980 0.7692 -1.1369
v  2.6690 -2.2845 -0.6246
v  2.5963 -2.9546 -0.5446
v  2.6589 0.9777 -1.0764
v  2.5803 -2.8223 -0.5758
v  1.9490 2.7453 -0.6485
v  0.0859 -3.3363 0.8178
v  -2.1193 -2.2586 0.1074
v  1.8769 -2.7600 0.3474
v  0.8848 -1.8875 1.3428
v  1.9971 -3.0998 -0.5374
v  -0.7875 -2.8667 0.6227
v  -2.1844 -2.1435 0.1816
v  -1.8751 0.8189 -1.1066
v  0.9048 -1.3398 1.2583
v  0.6415 -0.4423 1.4197
v  0.5350 -0.2641 1.5059
v  0.6924 -0.9429 1.4368
v  0.3493 0.5721 1.5538
v  0.5902 -0.6438 1.4794
v  0.7674 -1.9054 1.3602
v  -2.4506 -1.6731 0.1512
# 150 vertices

vn -0.7259 0.6818 0.0909
vn -0.8493 0.0407 0.5263
vn -0.6014 0.5469 0.5824
vn -0.6174 0.0770 0.7829
vn -0.6918 -0.1466 -0.7070
vn -0.6583 0.0452 -0.7514
vn -0.0168 -0.1561 -0.9876
vn -0.9831 0.1317 -0.1268
vn -0.4764 -0.8622 -0.1722
vn -0.4010 -0.9153 -0.0390
vn -0.4943 -0.8182 0.2935
vn -0.2395 -0.5907 -0.7705
vn -0.2699 0.2161 -0.9383
vn -0.0214 -0.1425 -0.9896
vn -0.3339 0.1182 -0.9352
vn -0.2401 0.7310 0.6387
vn -0.3167 0.7063 0.6331
vn -0.3464 0.2793 0.8955
vn -0.3067 0.6749 0.6711
vn -0.4426 0.1036 0.8907
vn -0.3275 0.6878 0.6478
vn -0.4755 0.3987 0.7842
vn -0.3899 0.3652 0.8453
vn -0.2633 0.9359 0.2339
vn -0.3501 0.7465 0.5659
vn -0.2555 0.9341 0.2493
vn -0.2841 0.9331 0.2207
vn -0.5178 0.3511 0.7801
vn 0.1551 0.9425 -0.2962
vn 0.3780 0.9185 0.1160
vn 0.4709 0.8119 -0.3450
vn 0.6939 0.2765 -0.6649
vn 0.2301 0.5141 -0.8263
vn 0.3959 0.6622 -0.6363
vn -0.6738 -0.7179 -0.1749
vn -0.8495 -0.5200 -0.0893
vn -0.7418 -0.4720 -0.4765
vn -0.1694 0.9806 -0.0982
vn -0.0078 0.8705 -0.4921
vn -0.1860 0.9757 -0.1155
vn -0.9839 0.1445 -0.1052
vn -0.8351 0.3419 -0.4310
vn -0.2554 0.9393 0.2291
vn -0.0134 -0.7526 -0.6583
vn -0.0030 -0.1597 -0.9872
vn 0.7764 -0.1297 -0.6167
vn 0.0109 -0.1548 -0.9879
vn 0.8200 -0.0436 -0.5708
vn -0.8961 -0.2224 0.3840
vn 0.9710 -0.0087 -0.2389
vn 0.8101 0.0946 0.5786
vn 0.8548 0.0634 0.5151
vn 0.7588 0.0949 0.6444
vn 0.7411 0.0997 0.6640
vn 0.7509 0.0834 0.6551
vn -0.3573 -0.1396 0.9235
vn -0.3458 -0.1280 0.9295
vn -0.3621 -0.1294 0.9231
vn 0.9664 0.0354 0.2545
vn 0.7535 0.1126 0.6477
vn 0.3179 0.3676 0.8740
vn 0.2999 0.7944 0.5282
vn -0.2094 0.6160 0.7594
vn -0.4714 0.7346 -0.4880
vn -0.5735 0.3189 -0.7546
vn -0.3594 0.8456 -0.3947
vn -0.0096 -0.1519 -0.9883
vn -0.3506 -0.1116 0.9298
vn -0.5469 0.4644 -0.6966
vn -0.2496 0.7351 -0.6304
vn 0.7394 0.1058 0.6649
vn -0.1643 0.8838 -0.4381
vn -0.2052 0.8697 -0.4488
vn -0.3643 -0.1169 0.9239
vn 0.7118 -0.0182 -0.7021
vn 0.0098 -0.1479 -0.9890
vn 0.0069 -0.1461 -0.9893
vn -0.3645 -0.1370 0.9211
vn 0.1903 -0.9744 0.1193
vn -0.1833 -0.7491 0.6366
vn 0.2030 -0.9781 0.0458
vn 0.1176 -0.7276 -0.6759
vn 0.1803 -0.9836 -0.0070
vn 0.7407 0.1131 0.6623
vn 0.7383 0.1126 0.6650
vn 0.0085 0.0472 -0.9989
vn 0.1746 0.1276 -0.9763
vn 0.3811 -0.8975 -0.2220
vn 0.7758 -0.5081 0.3741
vn 0.3875 -0.8764 0.2858
vn 0.1600 0.9726 0.1687
vn -0.2311 0.9366 0.2633
vn 0.8953 -0.0427 0.4434
vn 0.7147 -0.3574 0.6012
vn 0.7552 0.4084 0.5128
vn -0.0015 -0.1481 -0.9890
vn -0.1419 -0.9696 0.1995
vn -0.4627 -0.8446 0.2693
vn -0.3964 -0.5787 -0.7127
vn 0.1771 -0.9816 0.0721
vn 0.1296 -0.7645 -0.6314
vn 0.4985 -0.6810 0.5364
vn 0.6256 -0.1374 0.7679
vn 0.1262 -0.7405 0.6602
vn 0.7433 0.0905 0.6628
vn 0.0076 -0.1731 -0.9849
vn -0.1027 -0.9936 -0.0470
vn -0.2430 -0.2840 -0.9275
vn 0.0236 -0.1626 -0.9864
vn 0.1067 -0.6992 -0.7070
vn 0.1644 -0.2503 0.9541
vn 0.1900 -0.9312 -0.3109
vn 0.2255 -0.9598 -0.1671
vn 0.6810 0.1124 0.7236
vn 0.0925 0.3845 -0.9185
vn -0.2406 0.0076 -0.9706
vn -0.5724 0.3196 -0.7551
vn -0.5177 0.2373 -0.8220
vn -0.1002 0.3494 -0.9316
vn 0.0019 -0.1540 -0.9881
vn -0.3632 -0.1286 0.9228
vn -0.3535 -0.1283 0.9266
vn 0.0799 -0.0292 0.9964
vn 0.8466 0.5028 0.1744
vn 0.7531 0.1922 0.6292
vn 0.6560 0.4698 0.5907
vn 0.1244 0.4036 -0.9064
vn -0.0780 0.1462 0.9862
vn -0.1651 -0.0348 -0.9857
vn 0.9895 -0.0625 -0.1301
vn 0.7402 -0.4473 -0.5021
vn 0.9600 0.1025 0.2607
vn 0.2336 -0.1771 -0.9561
vn 0.6981 0.7147 0.0421
vn -0.4275 -0.8010 0.4191
vn -0.7156 -0.6829 0.1471
vn 0.7452 0.0698 0.6631
vn 0.4687 0.0164 0.8832
vn 0.0890 -0.4785 -0.8736
vn -0.4789 -0.5221 0.7057
vn -0.6802 -0.4419 0.5848
vn -0.4451 0.2149 -0.8693
vn 0.7351 0.0868 0.6724
vn 0.7086 0.0836 0.7006
vn 0.2473 -0.0115 0.9689
vn 0.5113 0.0218 0.8591
vn 0.1322 -0.0048 0.9912
vn 0.1445 -0.0299 0.9891
vn -0.0936 -0.0951 0.9911
vn -0.6500 -0.3250 0.6869
# 150 vertex normals

vt 0.6223 0.9045 0.0000
vt 0.6620 0.7497 0.0000
vt 0.6592 0.8943 0.0000
vt 0.6889 0.8345 0.0000
vt 0.5003 0.5832 0.0000
vt 0.5083 0.6669 0.0000
vt 0.3873 0.5605 0.0000
vt 0.5986 0.6427 0.0000
vt 0.5311 0.6795 0.0000
vt 0.5465 0.5969 0.0000
vt 0.5471 0.3644 0.0000
vt 0.5451 0.2697 0.0000
vt 0.6142 0.3795 0.0000
vt 0.5330 0.2840 0.0000
vt 0.3928 0.9388 0.0000
vt 0.3989 0.8880 0.0000
vt 0.4319 0.8466 0.0000
vt 0.5306 0.1902 0.0000
vt 0.5258 0.2093 0.0000
vt 0.5085 0.2013 0.0000
vt 0.5114 0.2516 0.0000
vt 0.5006 0.2222 0.0000
vt 0.5181 0.2379 0.0000
vt 0.5089 0.2165 0.0000
vt 0.4933 0.2849 0.0000
vt 0.8432 0.5971 0.0000
vt 0.8352 0.6811 0.0000
vt 0.8254 0.5972 0.0000
vt 0.7766 0.6700 0.0000
vt 0.7285 0.6625 0.0000
vt 0.7597 0.5784 0.0000
vt 0.6803 0.6165 0.0000
vt 0.7129 0.5797 0.0000
vt 0.8889 0.8653 0.0000
vt 0.9483 0.8081 0.0000
vt 0.9442 0.9391 0.0000
vt 0.9780 0.9817 0.0000
vt 0.9257 0.9439 0.0000
vt 0.8997 0.9093 0.0000
vt 0.5558 0.4060 0.0000
vt 0.6223 0.5488 0.0000
vt 0.5530 0.5744 0.0000
vt 0.9030 0.7470 0.0000
vt 0.8427 0.8739 0.0000
vt 0.7833 0.7662 0.0000
vt 0.6380 0.7847 0.0000
vt 0.6032 0.8832 0.0000
vt 0.7965 0.6746 0.0000
vt 0.2181 0.4108 0.0000
vt 0.2483 0.4160 0.0000
vt 0.2472 0.5081 0.0000
vt 0.0470 0.7152 0.0000
vt 0.0660 0.6935 0.0000
vt 0.0606 0.7687 0.0000
vt 0.6325 0.5719 0.0000
vt 0.9672 0.3051 0.0000
vt 0.9553 0.3088 0.0000
vt 0.9648 0.2680 0.0000
vt 0.9430 0.1707 0.0000
vt 0.9373 0.2538 0.0000
vt 0.8987 0.2581 0.0000
vt 0.9037 0.1371 0.0000
vt 0.1282 0.1853 0.0000
vt 0.2594 0.1167 0.0000
vt 0.2746 0.2070 0.0000
vt 0.5316 0.2527 0.0000
vt 0.9584 0.2419 0.0000
vt 0.9463 0.3557 0.0000
vt 0.9020 0.5903 0.0000
vt 0.9241 0.7017 0.0000
vt 0.8839 0.5922 0.0000
vt 0.6711 0.6992 0.0000
vt 0.4679 0.8966 0.0000
vt 0.4193 0.9546 0.0000
vt 0.4566 0.8613 0.0000
vt 0.7319 0.7968 0.0000
vt 0.3447 0.6812 0.0000
vt 0.4018 0.2042 0.0000
vt 0.7250 0.7995 0.0000
vt 0.7510 0.8316 0.0000
vt 0.7443 0.2754 0.0000
vt 0.8157 0.8634 0.0000
vt 0.7775 0.8425 0.0000
vt 0.3577 0.3892 0.0000
vt 0.3720 0.2511 0.0000
vt 0.4384 0.3523 0.0000
vt 0.1102 0.9148 0.0000
vt 0.0900 0.7702 0.0000
vt 0.1654 0.8877 0.0000
vt 0.1592 0.3442 0.0000
vt 0.6279 0.1820 0.0000
vt 0.6574 0.2176 0.0000
vt 0.5373 0.1821 0.0000
vt 0.1511 0.4308 0.0000
vt 0.1247 0.4557 0.0000
vt 0.1054 0.4554 0.0000
vt 0.8692 0.4434 0.0000
vt 0.6868 0.3988 0.0000
vt 0.2806 0.9781 0.0000
vt 0.2306 0.9806 0.0000
vt 0.5322 0.0255 0.0000
vt 0.5382 0.0169 0.0000
vt 0.6066 0.0877 0.0000
vt 0.9581 0.2133 0.0000
vt 0.9341 0.7533 0.0000
vt 0.8781 0.6897 0.0000
vt 0.8628 0.6005 0.0000
vt 0.1904 0.9790 0.0000
vt 0.9092 0.0114 0.0000
vt 0.9170 0.0299 0.0000
vt 0.8034 0.0065 0.0000
vt 0.8374 0.5580 0.0000
vt 0.2956 0.8607 0.0000
vt 0.7973 0.5906 0.0000
vt 0.5880 0.2455 0.0000
vt 0.5975 0.2548 0.0000
vt 0.5450 0.3968 0.0000
vt 0.1677 0.4238 0.0000
vt 0.1701 0.4331 0.0000
vt 0.6676 0.1378 0.0000
vt 0.6819 0.1342 0.0000
vt 0.6776 0.1560 0.0000
vt 0.6563 0.6469 0.0000
vt 0.7659 0.1653 0.0000
vt 0.1434 0.4771 0.0000
vt 0.5414 0.2557 0.0000
vt 0.4107 0.4987 0.0000
vt 0.0440 0.6149 0.0000
vt 0.0977 0.4698 0.0000
vt 0.0532 0.0389 0.0000
vt 0.0138 0.1025 0.0000
vt 0.5309 0.0676 0.0000
vt 0.5316 0.0970 0.0000
vt 0.5363 0.2004 0.0000
vt 0.6448 0.4915 0.0000
vt 0.6650 0.3499 0.0000
vt 0.5335 0.1283 0.0000
vt 0.8469 0.8988 0.0000
vt 0.8340 0.8833 0.0000
vt 0.6169 0.0871 0.0000
vt 0.4668 0.8248 0.0000
vt 0.5179 0.7723 0.0000
vt 0.4766 0.8321 0.0000
vt 0.7942 0.8624 0.0000
vt 0.2198 0.6700 0.0000
vt 0.2099 0.3737 0.0000
vt 0.2629 0.3586 0.0000
vt 0.8917 0.9229 0.0000
vt 0.6467 0.4029 0.0000
vt 0.9632 0.4798 0.0000
vt 0.9802 0.4217 0.0000
vt 0.9840 0.4726 0.0000
vt 0.4838 0.3295 0.0000
vt 0.9439 0.4846 0.0000
vt 0.7849 0.5618 0.0000
vt 0.8372 0.5685 0.0000
vt 0.3580 0.4435 0.0000
vt 0.7424 0.8364 0.0000
vt 0.8674 0.9005 0.0000
vt 0.4427 0.8106 0.0000
vt 0.5082 0.1595 0.0000
vt 0.4330 0.1338 0.0000
vt 0.5198 0.1509 0.0000
vt 0.4676 0.7471 0.0000
vt 0.9342 0.0772 0.0000
vt 0.9249 0.0178 0.0000
vt 0.9665 0.3661 0.0000
vt 0.5232 0.1690 0.0000
vt 0.0127 0.5321 0.0000
vt 0.0155 0.5804 0.0000
vt 0.0083 0.5208 0.0000
vt 0.9666 0.8860 0.0000
vt 0.6476 0.2373 0.0000
vt 0.9872 0.9616 0.0000
vt 0.6165 0.4626 0.0000
vt 0.7819 0.5685 0.0000
vt 0.7306 0.5664 0.0000
vt 0.8224 0.0361 0.0000
vt 0.9010 0.5255 0.0000
vt 0.0530 0.0240 0.0000
vt 0.1539 0.0534 0.0000
vt 0.0565 0.4955 0.0000
vt 0.0376 0.0404 0.0000
vt 0.0165 0.5020 0.0000
vt 0.0537 0.4842 0.0000
vt 0.5435 0.4733 0.0000
vt 0.0787 0.4702 0.0000
vt 0.5230 0.2263 0.0000
vt 0.6462 0.3276 0.0000
vt 0.6252 0.4728 0.0000
vt 0.3000 0.9846 0.0000
vt 0.4985 0.7626 0.0000
vt 0.7240 0.0137 0.0000
vt 0.7062 0.1636 0.0000
vt 0.0997 0.3411 0.0000
vt 0.5687 0.9161 0.0000
vt 0.1781 0.4010 0.0000
vt 0.3418 0.9670 0.0000
vt 0.7063 0.8823 0.0000
vt 0.0062 0.5041 0.0000
vt 0.4592 0.9477 0.0000
vt 0.4903 0.7604 0.0000
vt 0.6810 0.2439 0.0000
vt 0.6693 0.2600 0.0000
vt 0.6990 0.1151 0.0000
vt 0.6823 0.1993 0.0000
vt 0.0490 0.2053 0.0000
vt 0.3680 0.1137 0.0000
vt 0.6736 0.2262 0.0000
vt 0.2367 0.0743 0.0000
vt 0.2625 0.0857 0.0000
vt 0.1520 0.0638 0.0000
vt 0.2954 0.0926 0.0000
vt 0.6563 0.3350 0.0000
vt 0.1391 0.3679 0.0000
vt 0.6308 0.5203 0.0000
vt 0.1276 0.9629 0.0000
vt 0.8126 0.5950 0.0000
# 218 texture coords

g Crystal
usemtl Crystal
s 1
f 1/1/1 2/2/2 3/3/3 
f 3/3/3 2/2/2 4/4/4 
f 5/5/5 6/6/6 7/7/7 
f 8/8/8 6/9/6 5/10/5 
f 9/11/9 10/12/10 11/13/11 
f 12/14/12 10/12/10 9/11/9 
f 13/15/13 14/16/14 15/17/15 
f 16/18/16 17/19/17 18/20/18 
f 19/21/19 20/22/20 21/23/21 
f 21/23/21 20/22/20 22/24/22 
f 19/21/19 23/25/23 20/22/20 
f 17/26/17 24/27/24 25/28/25 
f 26/29/26 27/30/27 23/31/23 
f 27/30/27 3/32/3 28/33/28 
f 23/31/23 27/30/27 28/33/28 
f 29/34/29 30/35/30 31/36/31 
f 32/37/32 33/38/33 31/36/31 
f 31/36/31 34/39/34 29/34/29 
f 35/40/35 36/41/36 37/42/37 
f 38/43/38 30/35/30 29/34/29 
f 38/43/38 29/34/29 39/44/39 
f 26/29/26 40/45/40 27/30/27 
f 41/46/41 1/1/1 42/47/42 
f 40/45/40 26/29/26 43/48/43 
f 44/49/44 12/50/12 45/51/45 
f 46/52/46 47/53/47 48/54/48 
f 43/48/43 24/27/24 40/45/40 
f 8/8/8 49/55/49 2/2/2 
f 50/56/50 51/57/51 48/58/48 
f 52/59/52 53/60/53 54/61/54 
f 55/62/55 52/59/52 54/61/54 
f 56/63/56 57/64/57 58/65/58 
f 44/66/44 10/12/10 12/14/12 
f 48/58/48 51/57/51 59/67/59 
f 51/57/51 53/60/53 59/67/59 
f 51/57/51 60/68/60 53/60/53 
f 40/45/40 24/27/24 38/43/38 
f 61/69/61 62/70/62 63/71/63 
f 40/45/40 38/43/38 39/44/39 
f 27/30/27 40/45/40 64/72/64 
f 65/73/65 13/74/13 15/75/15 
f 66/76/66 64/72/64 40/45/40 
f 6/6/6 67/77/67 7/7/7 
f 20/22/20 68/78/68 18/20/18 
f 59/67/59 53/60/53 52/59/52 
f 66/76/66 69/79/69 64/72/64 
f 66/76/66 70/80/70 69/79/69 
f 49/55/49 5/10/5 37/42/37 
f 60/68/60 71/81/71 54/61/54 
f 72/82/72 73/83/73 40/45/40 
f 2/84/2 74/85/74 4/86/4 
f 75/87/75 76/88/76 77/89/77 
f 76/88/76 75/87/75 48/54/48 
f 76/88/76 48/54/48 47/53/47 
f 78/90/78 56/63/56 58/65/58 
f 79/91/79 80/92/80 81/93/81 
f 81/94/81 82/95/82 83/96/83 
f 84/97/84 85/98/85 71/81/71 
f 86/99/86 87/100/87 77/89/77 
f 88/101/88 89/102/89 90/103/90 
f 46/104/46 48/58/48 59/67/59 
f 38/43/38 62/70/62 91/105/91 
f 63/71/63 92/106/92 16/107/16 
f 33/108/33 75/87/75 77/89/77 
f 89/109/89 93/110/93 94/111/94 
f 95/112/95 85/98/85 84/97/84 
f 96/113/96 77/89/77 76/88/76 
f 92/106/92 24/27/24 17/26/17 
f 19/114/19 26/29/26 23/31/23 
f 10/12/10 97/115/97 98/116/98 
f 99/117/99 35/40/35 37/42/37 
f 100/118/100 101/119/101 81/94/81 
f 102/120/102 103/121/103 104/122/104 
f 64/72/64 1/123/1 27/30/27 
f 71/81/71 105/124/105 54/61/54 
f 49/55/49 37/42/37 36/41/36 
f 101/119/101 45/51/45 106/125/106 
f 101/119/101 44/49/44 45/51/45 
f 107/126/107 97/115/97 10/12/10 
f 45/51/45 108/127/108 7/7/7 
f 109/128/109 110/129/110 106/125/106 
f 111/130/111 56/63/56 80/131/80 
f 112/132/112 90/103/90 113/133/113 
f 107/126/107 100/134/100 97/115/97 
f 61/135/61 114/136/114 85/98/85 
f 108/127/108 5/5/5 7/7/7 
f 42/47/42 6/9/6 8/8/8 
f 113/133/113 90/103/90 83/137/83 
f 39/44/39 86/138/86 115/139/115 
f 72/82/72 39/44/39 115/139/115 
f 94/140/94 102/120/102 90/103/90 
f 116/141/116 117/142/117 118/143/118 
f 72/82/72 115/139/115 119/144/119 
f 83/137/83 102/120/102 79/91/79 
f 106/125/106 45/51/45 120/145/120 
f 121/146/121 122/147/122 2/84/2 
f 87/148/87 34/39/34 31/36/31 
f 61/135/61 123/149/123 114/136/114 
f 124/150/124 75/151/75 32/152/32 
f 74/85/74 68/78/68 28/153/28 
f 125/154/125 84/97/84 60/68/60 
f 44/49/44 101/119/101 100/118/100 
f 126/155/126 95/112/95 30/156/30 
f 45/51/45 99/157/99 108/127/108 
f 13/158/13 69/79/69 70/80/70 
f 2/84/2 122/147/122 74/85/74 
f 29/34/29 34/39/34 127/159/127 
f 116/160/116 15/17/15 14/16/14 
f 120/145/120 45/51/45 7/7/7 
f 128/161/128 123/162/123 61/163/61 
f 22/24/22 20/22/20 18/20/18 
f 1/1/1 41/46/41 2/2/2 
f 67/77/67 120/145/120 7/7/7 
f 123/162/123 18/20/18 68/78/68 
f 60/68/60 54/61/54 53/60/53 
f 129/164/129 116/160/116 67/77/67 
f 27/30/27 1/123/1 3/32/3 
f 128/161/128 18/20/18 123/162/123 
f 92/106/92 62/70/62 38/43/38 
f 86/138/86 39/44/39 127/159/127 
f 130/165/130 93/110/93 131/166/131 
f 99/117/99 9/11/9 35/40/35 
f 29/34/29 127/159/127 39/44/39 
f 50/56/50 132/167/132 51/57/51 
f 63/168/63 128/161/128 61/163/61 
f 10/12/10 44/66/44 107/126/107 
f 79/91/79 81/93/81 83/137/83 
f 133/169/133 130/170/130 131/171/131 
f 134/172/134 31/36/31 30/35/30 
f 6/6/6 129/164/129 67/77/67 
f 97/115/97 80/92/80 135/173/135 
f 86/99/86 77/89/77 96/113/96 
f 42/47/42 117/142/117 6/9/6 
f 95/112/95 84/97/84 125/154/125 
f 134/172/134 124/174/124 31/36/31 
f 38/43/38 24/27/24 92/106/92 
f 9/11/9 11/13/11 136/175/136 
f 35/40/35 9/11/9 136/175/136 
f 91/176/91 62/177/62 126/155/126 
f 76/88/76 120/145/120 96/113/96 
f 126/155/126 30/156/30 91/176/91 
f 55/62/55 137/178/137 93/110/93 
f 55/62/55 105/124/105 137/178/137 
f 96/113/96 120/145/120 67/77/67 
f 134/179/134 95/112/95 125/154/125 
f 38/43/38 91/105/91 30/35/30 
f 135/173/135 98/116/98 97/115/97 
f 134/179/134 30/156/30 95/112/95 
f 96/113/96 67/77/67 14/16/14 
f 76/88/76 47/53/47 120/145/120 
f 119/144/119 73/83/73 72/82/72 
f 13/158/13 73/83/73 119/144/119 
f 73/83/73 70/80/70 40/45/40 
f 103/180/103 138/181/138 111/130/111 
f 131/171/131 139/182/139 133/169/133 
f 111/130/111 104/183/104 103/180/103 
f 72/82/72 40/45/40 39/44/39 
f 88/184/88 112/185/112 139/182/139 
f 127/159/127 34/39/34 87/148/87 
f 47/53/47 109/128/109 120/145/120 
f 99/117/99 37/42/37 108/186/108 
f 110/129/110 139/182/139 113/187/113 
f 109/128/109 106/125/106 120/145/120 
f 101/119/101 82/95/82 81/94/81 
f 100/134/100 80/92/80 97/115/97 
f 110/129/110 83/96/83 82/95/82 
f 99/157/99 45/51/45 12/50/12 
f 99/117/99 12/14/12 9/11/9 
f 108/186/108 37/42/37 5/10/5 
f 110/129/110 82/95/82 106/125/106 
f 112/185/112 113/187/113 139/182/139 
f 8/8/8 41/46/41 42/47/42 
f 113/187/113 83/96/83 110/129/110 
f 133/169/133 139/182/139 109/128/109 
f 109/128/109 139/182/139 110/129/110 
f 17/19/17 25/188/25 22/24/22 
f 140/189/140 141/190/141 136/175/136 
f 11/13/11 10/12/10 98/116/98 
f 103/121/103 102/120/102 94/140/94 
f 86/138/86 127/159/127 87/148/87 
f 82/95/82 101/119/101 106/125/106 
f 86/99/86 96/113/96 115/191/115 
f 135/173/135 11/13/11 98/116/98 
f 116/141/116 142/192/142 117/142/117 
f 130/170/130 133/169/133 46/52/46 
f 94/140/94 90/103/90 89/102/89 
f 104/122/104 79/91/79 102/120/102 
f 46/52/46 109/128/109 47/53/47 
f 81/93/81 80/92/80 100/134/100 
f 94/111/94 93/110/93 137/178/137 
f 103/193/103 94/111/94 137/178/137 
f 124/150/124 132/167/132 75/151/75 
f 46/52/46 133/169/133 109/128/109 
f 143/194/143 103/193/103 137/178/137 
f 56/63/56 78/90/78 141/195/141 
f 28/153/28 68/78/68 23/25/23 
f 64/196/64 42/47/42 1/1/1 
f 49/197/49 121/146/121 2/84/2 
f 59/67/59 52/59/52 46/104/46 
f 90/103/90 102/120/102 83/137/83 
f 130/165/130 55/62/55 93/110/93 
f 131/171/131 88/184/88 139/182/139 
f 4/86/4 74/85/74 28/153/28 
f 63/168/63 18/20/18 128/161/128 
f 2/2/2 41/46/41 8/8/8 
f 124/174/124 32/37/32 31/36/31 
f 134/179/134 125/154/125 124/150/124 
f 51/57/51 132/167/132 60/68/60 
f 75/151/75 50/56/50 48/58/48 
f 119/198/119 14/16/14 13/15/13 
f 28/199/28 3/3/3 4/4/4 
f 119/198/119 115/191/115 96/113/96 
f 35/40/35 136/175/136 36/41/36 
f 52/59/52 130/165/130 46/104/46 
f 119/198/119 96/113/96 14/16/14 
f 14/16/14 67/77/67 116/160/116 
f 20/22/20 23/25/23 68/78/68 
f 88/184/88 131/171/131 89/200/89 
f 93/110/93 89/109/89 131/166/131 
f 88/101/88 90/103/90 112/132/112 
f 64/196/64 65/73/65 117/142/117 
f 65/73/65 64/196/64 69/201/69 
f 65/73/65 118/143/118 117/142/117 
f 61/135/61 126/155/126 62/177/62 
f 126/155/126 61/135/61 85/98/85 
f 6/9/6 117/142/117 142/192/142 
f 116/141/116 129/202/129 142/192/142 
f 144/203/144 114/136/114 145/204/145 
f 138/205/138 143/194/143 146/206/146 
f 103/193/103 143/194/143 138/205/138 
f 71/81/71 143/194/143 105/124/105 
f 122/147/122 78/90/78 58/65/58 
f 16/18/16 18/20/18 63/168/63 
f 118/143/118 15/75/15 116/141/116 
f 60/68/60 124/150/124 125/154/125 
f 114/136/114 144/203/144 71/81/71 
f 71/81/71 144/203/144 143/194/143 
f 129/202/129 6/9/6 142/192/142 
f 80/131/80 56/63/56 140/207/140 
f 87/100/87 33/108/33 77/89/77 
f 66/76/66 40/45/40 70/80/70 
f 74/85/74 58/65/58 57/64/57 
f 126/155/126 85/98/85 95/112/95 
f 13/74/13 65/73/65 69/201/69 
f 105/124/105 143/194/143 137/178/137 
f 146/206/146 143/194/143 144/203/144 
f 123/162/123 57/64/57 147/208/147 
f 148/209/148 146/206/146 144/203/144 
f 122/147/122 121/146/121 78/90/78 
f 146/210/146 148/211/148 149/212/149 
f 49/55/49 8/8/8 5/10/5 
f 111/130/111 138/181/138 149/212/149 
f 132/167/132 50/56/50 75/151/75 
f 73/83/73 13/158/13 70/80/70 
f 145/213/145 57/64/57 148/211/148 
f 74/85/74 57/64/57 68/78/68 
f 148/209/148 144/203/144 145/204/145 
f 149/212/149 138/181/138 146/210/146 
f 122/147/122 58/65/58 74/85/74 
f 147/208/147 57/64/57 145/213/145 
f 54/61/54 105/124/105 55/62/55 
f 85/98/85 114/136/114 71/81/71 
f 114/136/114 147/214/147 145/204/145 
f 114/136/114 123/149/123 147/214/147 
f 132/167/132 124/150/124 60/68/60 
f 150/215/150 141/195/141 78/90/78 
f 150/216/150 36/41/36 141/190/141 
f 140/189/140 136/175/136 11/13/11 
f 42/47/42 64/196/64 117/142/117 
f 80/131/80 104/183/104 111/130/111 
f 141/190/141 36/41/36 136/175/136 
f 121/146/121 49/197/49 150/215/150 
f 49/55/49 36/41/36 150/216/150 
f 141/195/141 140/207/140 56/63/56 
f 118/143/118 65/73/65 15/75/15 
f 63/71/63 62/70/62 92/106/92 
f 33/108/33 32/217/32 75/87/75 
f 80/92/80 79/91/79 104/122/104 
f 111/130/111 149/212/149 57/64/57 
f 87/148/87 31/36/31 33/38/33 
f 24/27/24 43/48/43 21/218/21 
f 57/64/57 123/162/123 68/78/68 
f 56/63/56 111/130/111 57/64/57 
f 55/62/55 130/165/130 52/59/52 
f 84/97/84 71/81/71 60/68/60 
f 80/92/80 140/189/140 135/173/135 
f 150/215/150 78/90/78 121/146/121 
f 135/173/135 140/189/140 11/13/11 
f 149/212/149 148/211/148 57/64/57 
f 43/48/43 26/29/26 19/114/19 
f 25/188/25 21/23/21 22/24/22 
f 16/107/16 92/106/92 17/26/17 
f 107/126/107 44/66/44 100/134/100 
f 18/20/18 17/19/17 22/24/22 
f 25/28/25 24/27/24 21/218/21 
f 21/218/21 43/48/43 19/114/19 
# 296 faces

